<svg xmlns="http://www.w3.org/2000/svg" version="1.1" xmlns:xlink="http://www.w3.org/1999/xlink" xmlns:svgjs="http://svgjs.dev/svgjs" width="1500" height="1500" viewBox="0 0 1500 1500"><rect width="1500" height="1500" fill="#000000"></rect><g transform="matrix(0.3068425897514575,0,0,0.3068425897514575,518.8288905170614,248.57077253416628)"><svg viewBox="0 0 133 289" data-background-color="#ffffff" preserveAspectRatio="xMidYMid meet" height="3259" width="1500" xmlns="http://www.w3.org/2000/svg" xmlns:xlink="http://www.w3.org/1999/xlink"><g id="tight-bounds" transform="matrix(1,0,0,1,0.30028259470083185,41.386953262373964)"><svg viewBox="0 0 132.3994348105983 247.2" height="247.2" width="132.3994348105983"><g><svg viewBox="0 0 171.57260273972602 320.3393387436516" height="247.2" width="132.3994348105983"><g transform="matrix(1,0,0,1,0,73.1393387436516)"><svg viewBox="0 0 171.57260273972602 247.2" height="247.2" width="171.57260273972602"><g id="textblocktransform"><svg viewBox="0 0 171.57260273972602 247.2" height="247.2" width="171.57260273972602" id="textblock"><g><svg viewBox="0 0 171.57260273972602 247.2" height="247.2" width="171.57260273972602"><g transform="matrix(1,0,0,1,0,0)"><svg width="171.57260273972602" viewBox="2.1499999999999995 -32.35 22.8 32.85000000000001" height="247.2" data-palette-color="#ef5b2a"><path d="M5.6 0.5L5.6 0.5Q5 0.5 4.38 0.3 3.75 0.1 3.35-0.65 2.95-1.4 2.95-2.95L2.95-2.95Q2.95-4.2 3.18-6.13 3.4-8.05 3.75-10.25L3.75-10.25Q4.1-12.5 4.33-15 4.55-17.5 4.55-20.05L4.55-20.05Q4.55-21.05 4.5-22.2 4.45-23.35 4.3-24.45L4.3-24.45Q3.95-24.25 3.63-24.13 3.3-24 3-24L3-24Q2.15-24 2.15-25.65L2.15-25.65Q2.15-27.15 2.83-28.18 3.5-29.2 5.3-30.15L5.3-30.15Q7.05-31.1 9.43-31.73 11.8-32.35 14.25-32.35L14.25-32.35Q19.1-32.35 22.03-29.8 24.95-27.25 24.95-23L24.95-23Q24.95-20.4 23.9-18.2 22.85-16 21.13-14.38 19.4-12.75 17.38-11.88 15.35-11 13.4-11L13.4-11Q11.55-11 10.9-11.83 10.25-12.65 10.25-14.2L10.25-14.2Q10.25-14.95 10.43-15.58 10.6-16.2 11.2-16.2L11.2-16.2Q11.35-16.2 11.65-16.15 11.95-16.1 12.25-16L12.25-16Q12.55-15.95 13.1-15.85 13.65-15.75 14.35-15.75L14.35-15.75Q17.1-15.75 18.82-17.3 20.55-18.85 20.55-21.3L20.55-21.3Q20.55-23.85 18.65-25.3 16.75-26.75 13.75-26.75L13.75-26.75Q12.65-26.75 11.5-26.58 10.35-26.4 9.2-26.1L9.2-26.1Q9.05-22.8 8.5-18.6L8.5-18.6Q8.2-16.1 7.98-13.68 7.75-11.25 7.75-9.25L7.75-9.25Q7.75-7.5 8.08-6.18 8.4-4.85 9.4-3.9L9.4-3.9Q10.1-3.2 10.1-2.4L10.1-2.4Q10.1-1.3 8.85-0.4 7.6 0.5 5.6 0.5Z" opacity="1" transform="matrix(1,0,0,1,0,0)" fill="#ffffff" class="wordmark-text-0" data-fill-palette-color="primary" id="text-0"></path></svg></g></svg></g></svg></g></svg></g><g transform="matrix(1,0,0,1,32.77036712328767,0)"><svg viewBox="0 0 106.03186849315068 14.781351543651605" height="14.781351543651605" width="106.03186849315068"><g><svg xmlns="http://www.w3.org/2000/svg" data-name="Your Icon" viewBox="16.5 39 67 11" x="8" y="0" height="14.781351543651605" width="90.03186849315068" class="icon-icon-0" data-fill-palette-color="accent" id="icon-0"><path d="M45 45H30A2.5 2.5 0 0 0 30 50H45A2.5 2.5 0 0 0 45 45" fill="#ffffff" data-fill-palette-color="accent"></path><path d="M70 45H55A2.5 2.5 0 0 0 55 50H70A2.5 2.5 0 0 0 70 45" fill="#ffffff" data-fill-palette-color="accent"></path><circle cx="20" cy="42.5" r="3.5" fill="#ffffff" data-fill-palette-color="accent"></circle><circle cx="80" cy="42.5" r="3.5" fill="#ffffff" data-fill-palette-color="accent"></circle></svg></g></svg></g><g><rect width="13.183783158723813" height="22.292751110399998" y="-8.511399566748402" x="138.80223561643834" fill="#ffffff" data-fill-palette-color="accent"></rect><rect width="13.183783158723813" height="22.292751110399998" y="-8.511399566748402" x="19.586583964563857" fill="#ffffff" data-fill-palette-color="accent"></rect><rect width="13.183783158723813" height="22.292751110399998" y="-53.0969017875484" x="138.80223561643834" fill="#ffffff" data-fill-palette-color="accent"></rect><rect width="13.183783158723813" height="22.292751110399998" y="-53.0969017875484" x="19.586583964563857" fill="#ffffff" data-fill-palette-color="accent"></rect></g></svg></g><defs></defs></svg><rect width="132.3994348105983" height="247.2" fill="none" stroke="none" visibility="hidden"></rect></g></svg></g>
</svg>